<svg width="16" height="641" viewBox="0 0 16 641" fill="none" xmlns="http://www.w3.org/2000/svg">
<path d="M6 150.1L-8.9407e-08 150.1" stroke="#D6EBFF"/>
<path d="M6 192.699L-8.9407e-08 192.699" stroke="#D6EBFF"/>
<path d="M6 235.3L-8.9407e-08 235.3" stroke="#D6EBFF"/>
<path d="M6 22.3003L-8.9407e-08 22.3003" stroke="#D6EBFF"/>
<path d="M6 64.9009L-8.9407e-08 64.9009" stroke="#D6EBFF"/>
<path d="M6 107.5L-8.9407e-08 107.5" stroke="#D6EBFF"/>
<path d="M6 299.2L-8.9407e-08 299.2" stroke="#D6EBFF"/>
<path d="M6 341.8L-8.9407e-08 341.8" stroke="#D6EBFF"/>
<path d="M6 405.7L-8.9407e-08 405.7" stroke="#D6EBFF"/>
<path d="M6 448.301L-8.9407e-08 448.301" stroke="#D6EBFF"/>
<path d="M6 171.4L-8.9407e-08 171.4" stroke="#D6EBFF"/>
<path d="M6 214L-8.9407e-08 214" stroke="#D6EBFF"/>
<path d="M6 490.9L-8.9407e-08 490.9" stroke="#D6EBFF"/>
<path d="M6 554.8L-8.9407e-08 554.8" stroke="#D6EBFF"/>
<path d="M6 597.399L-8.9407e-08 597.399" stroke="#D6EBFF"/>
<path d="M6 43.6006L-8.9407e-08 43.6006" stroke="#D6EBFF"/>
<path d="M6 86.2002L-8.9407e-08 86.2002" stroke="#D6EBFF"/>
<path d="M6 277.899L-8.9407e-08 277.899" stroke="#33C400"/>
<path d="M6 320.5L-8.9407e-08 320.5" stroke="#D6EBFF"/>
<path d="M6 363.101L-8.9407e-08 363.101" stroke="#D6EBFF"/>
<path d="M6 427L-8.9407e-08 427" stroke="#D6EBFF"/>
<path d="M6 469.6L-8.9407e-08 469.6" stroke="#D6EBFF"/>
<path d="M6 533.5L-8.9407e-08 533.5" stroke="#D6EBFF"/>
<path d="M6 576.099L-8.9407e-08 576.099" stroke="#D6EBFF"/>
<path d="M6 618.7L-8.9407e-08 618.7" stroke="#D6EBFF"/>
<path d="M16 128.801L-8.34465e-07 128.801" stroke="#D6EBFF"/>
<path d="M16 1L-8.34465e-07 0.999998" stroke="#D6EBFF"/>
<path d="M16 256.599L-8.34465e-07 256.599" stroke="#D6EBFF"/>
<path d="M16 384.401L-8.34465e-07 384.401" stroke="#D6EBFF"/>
<path d="M16 512.199L-8.34465e-07 512.199" stroke="#D6EBFF"/>
<path d="M16 640L-8.34465e-07 640" stroke="#D6EBFF"/>
</svg>
